<?xml version="1.0" standalone="no"?><!DOCTYPE svg PUBLIC "-//W3C//DTD SVG 1.1//EN" "http://www.w3.org/Graphics/SVG/1.1/DTD/svg11.dtd"><svg t="1563290071551" class="icon" viewBox="0 0 1024 1024" version="1.1" xmlns="http://www.w3.org/2000/svg" p-id="1088" xmlns:xlink="http://www.w3.org/1999/xlink" width="200" height="200"><defs><style type="text/css"></style></defs><path d="M853.333333 213.546667H170.666667a85.333333 85.333333 0 0 0-85.333334 85.333333v426.666667a85.333333 85.333333 0 0 0 85.333334 85.333333h682.666666a85.333333 85.333333 0 0 0 85.333334-85.333333v-426.666667a85.333333 85.333333 0 0 0-85.333334-85.333333z m-341.333333 128a85.333333 85.333333 0 1 1-0.042667 170.709333A85.333333 85.333333 0 0 1 512 341.546667z m-128 341.333333a128 128 0 1 1 256 0H384z" p-id="1089"></path></svg>