<?xml version="1.0" standalone="no"?><!DOCTYPE svg PUBLIC "-//W3C//DTD SVG 1.1//EN" "http://www.w3.org/Graphics/SVG/1.1/DTD/svg11.dtd"><svg t="1563289313168" class="icon" viewBox="0 0 1024 1024" version="1.1" xmlns="http://www.w3.org/2000/svg" p-id="937" xmlns:xlink="http://www.w3.org/1999/xlink" width="200" height="200"><defs><style type="text/css"></style></defs><path d="M96.3 831.7h483.5c0-93.6-53.2-187.1-131.1-227.6 37.6-31.7 61.5-79.2 61.5-132.3 0-95.6-77.5-173-173-173s-173 77.5-173 173c0 53.4 24.2 101.1 62.1 132.8-77.2 40.8-130 133.9-130 227.1z" p-id="938"></path><path d="M430.2 255.9c27.9 11.8 53 28.7 74.5 50.2 21.5 21.5 38.4 46.6 50.2 74.5 12.2 28.9 18.4 59.6 18.4 91.3 0 42.8-11.6 84.2-33.1 120.1 22.1 19.6 41.4 42.4 57.1 67.8 29.7 47.9 45.4 114 45.5 170.3H928c0-136.8-79.5-285-194.8-351.7C768.4 441.3 790 391 790 335.8c0-114.7-93-207.6-207.6-207.6-81.9 0-152.8 47.4-186.5 116.4 11.6 2.8 23.1 6.6 34.3 11.3z" p-id="939"></path><path d="M448.8 604.2c37.6-31.7 61.5-79.2 61.5-132.3 0-82.4-57.5-151.3-134.6-168.7-1.7 10.6-2.6 21.5-2.6 32.6 0 55.3 21.6 105.5 56.8 142.7-115.3 66.7-194.8 215.6-194.8 352.4h344.7c-0.3-93.3-53.4-186.4-131-226.7z" p-id="940"></path></svg>